<?xml version="1.0" encoding="UTF-8"?>
<svg id="Layer_1" data-name="Layer 1" xmlns="http://www.w3.org/2000/svg" version="1.1" viewBox="0 0 374.58 73.55">
  <defs>
    <style>
      .cls-1 {
        fill: #3aaa35;
      }

      .cls-1, .cls-2, .cls-3, .cls-4 {
        stroke: #fff;
        stroke-width: .05px;
      }

      .cls-2 {
        fill: #e94e1b;
      }

      .cls-2, .cls-5, .cls-4 {
        stroke-miterlimit: 10;
      }

      .cls-6 {
        fill: #636bb0;
      }

      .cls-6, .cls-7 {
        stroke-width: 0px;
      }

      .cls-3 {
        fill: #d60b52;
      }

      .cls-5 {
        fill: none;
        stroke: #636bb0;
        stroke-width: 2px;
      }

      .cls-7 {
        fill: #fff;
      }

      .cls-4 {
        fill: #662483;
      }
    </style>
  </defs>
  <g>
    <path class="cls-6" d="M82.54,12.24h5.89v41.99h-5.89V12.24ZM85.58,32.34h13.43c1.27,0,2.39-.3,3.35-.9.96-.6,1.71-1.44,2.24-2.54.53-1.1.79-2.36.79-3.78s-.26-2.71-.79-3.81c-.53-1.1-1.28-1.95-2.24-2.56-.96-.61-2.08-.91-3.35-.91h-13.43v-5.6h13.23c2.5,0,4.71.53,6.61,1.6,1.91,1.07,3.38,2.58,4.43,4.52,1.05,1.94,1.57,4.2,1.57,6.76s-.52,4.81-1.57,6.74-2.53,3.43-4.43,4.49c-1.91,1.06-4.11,1.59-6.61,1.59h-13.23v-5.6Z"/>
    <path class="cls-6" d="M118.79,12.24h5.89v41.99h-5.89V12.24ZM136.98,36.07c0-2.12-.55-3.75-1.65-4.91s-2.64-1.73-4.62-1.73-3.41.5-4.46,1.5c-1.05,1-1.57,2.42-1.57,4.25l-.61-5.78c.92-1.77,2.13-3.14,3.62-4.12,1.49-.97,3.14-1.46,4.95-1.46,3.25,0,5.77,1.06,7.55,3.19s2.67,5.14,2.67,9.02v18.19h-5.89v-18.17Z"/>
    <path class="cls-6" d="M153.13,52.37c-1.83-1.53-2.74-3.86-2.74-6.97s.84-5.19,2.51-6.67c1.68-1.48,4.21-2.22,7.6-2.22h8.52l.4,4.74h-8.9c-1.54,0-2.69.34-3.45,1.02-.76.68-1.14,1.73-1.14,3.13,0,1.52.51,2.65,1.52,3.38,1.01.73,2.55,1.1,4.61,1.1,2.25,0,3.93-.24,5.04-.72,1.11-.48,1.66-1.23,1.66-2.25l.61,4.22c-.52.81-1.16,1.47-1.92,1.99-.76.52-1.64.91-2.64,1.17-1,.26-2.13.39-3.38.39-3.7,0-6.46-.77-8.29-2.3ZM168.75,35.23c0-1.96-.52-3.49-1.57-4.58-1.05-1.09-2.54-1.63-4.46-1.63-1.19,0-2.36.18-3.51.55-1.15.37-2.16.88-3.05,1.53l-4.3-2.95c1.14-1.37,2.63-2.43,4.49-3.19,1.86-.76,3.92-1.14,6.19-1.14,2.48,0,4.61.44,6.38,1.31,1.77.88,3.12,2.15,4.04,3.81.92,1.67,1.39,3.67,1.39,6.02v19.26h-5.6v-19Z"/>
    <path class="cls-6" d="M183.31,24.25h5.89v29.98h-5.89v-29.98ZM197.84,29.92c-.79-.33-1.7-.49-2.74-.49-1.87,0-3.32.52-4.35,1.55-1.03,1.03-1.54,2.46-1.54,4.29l-.61-5.78c.92-1.79,2.12-3.18,3.58-4.17,1.46-.99,3.08-1.49,4.85-1.49,1.37,0,2.6.2,3.71.59,1.11.4,2.07.98,2.9,1.75l-3.84,5.2c-.52-.64-1.17-1.12-1.96-1.44Z"/>
    <path class="cls-6" d="M208.55,24.25h5.89v29.98h-5.89v-29.98ZM226.46,36.07c0-2.12-.52-3.75-1.56-4.91-1.04-1.16-2.51-1.73-4.42-1.73s-3.41.51-4.46,1.53c-1.05,1.02-1.57,2.46-1.57,4.3l-.61-5.78c.92-1.81,2.13-3.21,3.62-4.19s3.14-1.47,4.95-1.47c2.1,0,3.89.48,5.37,1.43,1.48.95,2.61,2.34,3.39,4.17.78,1.83,1.17,4.03,1.17,6.61v18.19h-5.89v-18.17ZM244.36,36.07c0-2.12-.55-3.75-1.65-4.91-1.1-1.16-2.64-1.73-4.62-1.73-1.83,0-3.25.56-4.25,1.68s-1.5,2.7-1.5,4.74l-1.18-5.78c.94-1.98,2.19-3.52,3.74-4.61s3.26-1.63,5.13-1.63c2.16,0,4,.48,5.53,1.43,1.53.95,2.7,2.34,3.49,4.17.8,1.83,1.2,4.03,1.2,6.61v18.19h-5.89v-18.17Z"/>
    <path class="cls-6" d="M259.78,12.24h5.89v41.99h-5.89V12.24ZM262.67,12.24h23.54v5.6h-23.54v-5.6ZM262.67,30.95h20.36v5.6h-20.36v-5.6Z"/>
    <path class="cls-6" d="M292.27,24.25h5.89v29.98h-5.89v-29.98ZM306.8,29.92c-.79-.33-1.7-.49-2.74-.49-1.87,0-3.32.52-4.35,1.55-1.03,1.03-1.54,2.46-1.54,4.29l-.61-5.78c.92-1.79,2.12-3.18,3.58-4.17,1.46-.99,3.08-1.49,4.85-1.49,1.37,0,2.6.2,3.71.59,1.11.4,2.07.98,2.9,1.75l-3.84,5.2c-.52-.64-1.17-1.12-1.96-1.44Z"/>
    <path class="cls-6" d="M322.69,53.11c-1.96-1.04-3.46-2.57-4.49-4.58-1.03-2.01-1.54-4.44-1.54-7.29v-3.38c0-2.96.5-5.5,1.49-7.6.99-2.1,2.43-3.7,4.32-4.79,1.89-1.1,4.16-1.65,6.82-1.65,2.5,0,4.64.63,6.41,1.88,1.77,1.25,3.12,3.06,4.06,5.43.93,2.37,1.4,5.21,1.4,8.52v1.96h-20.22v-4.74h14.61c-.17-2.44-.8-4.35-1.89-5.7-1.09-1.36-2.55-2.04-4.38-2.04-2.23,0-3.96.73-5.18,2.19-1.22,1.46-1.83,3.53-1.83,6.21v3.81c0,2.48.65,4.39,1.96,5.72,1.31,1.33,3.17,1.99,5.57,1.99,1.19,0,2.38-.24,3.55-.72,1.17-.48,2.22-1.16,3.15-2.02l3.87,3.87c-1.48,1.43-3.15,2.53-5,3.31-1.85.78-3.71,1.17-5.57,1.17-2.77,0-5.14-.52-7.11-1.56Z"/>
    <path class="cls-6" d="M353.11,53.32c-1.55-.95-2.73-2.34-3.54-4.17-.81-1.83-1.21-4.02-1.21-6.58v-6.61c0-2.58.39-4.78,1.18-6.61.79-1.83,1.94-3.22,3.45-4.17s3.33-1.43,5.44-1.43c1.77,0,3.39.46,4.87,1.39,1.47.92,2.66,2.22,3.57,3.9l-.61,6.12c0-1.27-.23-2.36-.69-3.26-.46-.9-1.13-1.59-2.01-2.06-.88-.47-1.94-.71-3.19-.71-1.94,0-3.45.61-4.52,1.82s-1.6,2.92-1.6,5.11v6.53c0,2.18.53,3.86,1.6,5.04s2.58,1.78,4.52,1.78c1.25,0,2.32-.25,3.19-.74.88-.49,1.54-1.2,2.01-2.12.46-.92.69-2.03.69-3.32l.4,6.32c-.6,1.48-1.57,2.72-2.93,3.73s-3.03,1.5-5.01,1.5c-2.2,0-4.07-.48-5.62-1.43ZM366.27,24.25h5.89v42.17h-5.89V24.25Z"/>
  </g>
  <g>
    <path class="cls-4" d="M40.89,30.08s0,.03,0,.04h3.97l.35-.78,4.16,1.87,5.24.34v.05s6.53,4.75,6.53,4.75c.06-.06.1-.13.1-.22,0-.8.59-2.06,1.56-1.56.15.09.46.26.57.41.17.2.2.52.41.7.24.17.7.17.67-.26l-.04-.44s-.02-.04-.02-.06v-.07c-.65-5.87-3.28-11.46-7.43-15.69-.13-.13-.85-.07-1.04-.09-.28-.04-.54-.04-.83.04-.22.06-.39.26-.65.24-.22-.02-.37-.22-.61-.22h-.11c-.2-.02-.3.15-.48.17-.24.02-.37-.04-.61-.07-.2-.04-.22-.04-.31-.13-.22-.22-.56-.35-1.04-.37q-.17,0-.22-.04c-.2-.15-.52-.13-.74-.22-.46-.2-1-.52-1.52-.35-.13.07-.24.15-.33.22-.09.11-.5.09-.63.13-.37.13-1.15.41-1.22.85-.07.04-.15.11-.35.3-.28.35-.24.72-.76.87-.17.04-.37-.02-.52.07-.2.13.02.3-.3.39-.76.2-.22,1.52.13,1.89.26.26.37.17.43.61.04.35.04.5-.37.5h-.04s-.04,0-.04.02c-.33.37-.76.35-1.11,0-.37-.39-.46-.74-.46-1.2,0-.57-.83-.78-1.22-.85-.15-.02-.3.04-.37.17-.02.02-.09.13-.17.2-.15.13-.13.35-.24.5-.33.41-.89.41-1.15.87-.24.43-.28,1.09.28,1.26.33.11.7-.06,1.02-.13.04,0,.2,1.56.61,1.56.43,0,.67.48.63.85-.54.02-1.17-.15-1.72-.26h-.11c-.28.02-.67.13-.8.43-.02.09-.07.26.07.48v.02c.09.46-.13.44-.26.8-.09.26-.02.91.2,1.13.24.26.59.17.89.26Z"/>
    <path class="cls-2" d="M51.35,53.98c.26-.24.65-.3.89-.56.33-.37.28-.83.72-1.15l.17-.11c.41-.3.43-.59.33-.96l-.04-.09c.06-.07.26-.17.41-.22.72-.24.83-1.39.52-1.98.11.02,1.11-.91,1.26-1.02l.07-.07c1.17-.87.5-2.06.54-3.24,0-.11,0-.24-.11-.41,0-.02-.02-.07-.04-.22.13-.09.17-.24.2-.37v-.09c.15-.11.2-.26.2-.41,0-.19.76-.85.91-1,.28-.33.7-.67,1.02-.93.2-.13.41-.48.5-.63.02-.04.04-.11.06-.17.07-.13.11-.28.26-.52.2-.33.39-.76.35-1.17-.04-.48-.91-1.54.3-1.52h.02c.41,0,.93-.2,1.09-.65.07-.02.12-.06.16-.11l-6.53-4.75v-.05s-5.24-.34-5.24-.34l-4.16-1.87-.35.78h-3.97c.07.12-.78.55-.8.57-.39.24-.37.59-.52.98-.17.43-.37.43-.76.63-.43.2-.83.52-1.15.89-.24.26-.39.74-.63.96-.09.11-.26.26-.35.41l-.07.06c-.07.09-.09.15-.11.3-.09.43.37.85.28,1.3-.02.09-.04.2-.04.35v.09c-.06.11-.2.28-.24.33,0,.02-.02.07-.02.09-.13.26-.24.93-.11,1.2.24.44.87.59,1.2.96.04.04.11.11.22.19,0,0,.02.02.07.09v.17c0,.24.22.37.41.5.54.35,1.04.81,1.65,1,.7.24,1.28-.04,1.98-.07.39-.02.78-.04,1.15-.13.35-.11.65-.35,1.02-.39.85-.15.43.37,1.02.63.41.17.93-.46,1.17.11.15.35-.24.83-.3,1.15-.13.78.89,1.15,1.11,1.78.11.24.17.52.22.76.04.26.2.63.2.82,0,.09-.02.28-.15.48-.3.39-.59,1.22-.72,1.65-.02.09-.04.17-.04.24-.04.22,0,.63.67,1.89.02.22.11.85.06,1.11-.04.48.28.83.46,1.22.24.65.02,1.39.3,2,.15.33.37.5.65.5.24,0,.43-.13.7-.3.07-.04.11-.07.22-.02.09.02.17.07.3.07.13-.02.28-.07.43-.15.13-.04.3-.11.37-.11.35-.02.39-.28.61-.48Z"/>
    <circle class="cls-5" cx="37.75" cy="36.95" r="34.31"/>
    <path class="cls-1" d="M35.04,18.13c-.26,0-.52.06-.67.22-.04.02-.07.04-.09.04-.04,0-.11.02-.2.06-.2.07-.33.13-.48.28-.02.02-.04.04-.11.09-.02-.02-.06-.04-.11-.07-.35-.09-.93.41-1.02.7-.02.11.02.28.11.39.02.04.02.09.04.11.04.11.15.17.26.2.02.02.04.07.07.09.07.04.15.06.24.06.04,0,.11,0,.15-.02.07-.04.17-.07.22-.09.15.02.41,0,.65-.09.2-.09.41-.2.5-.37.09-.07.28-.2.46-.3.26-.13.69-.61.63-.89,0-.04,0-.06-.02-.11-.11-.2-.35-.3-.63-.3h0Z"/>
    <path class="cls-2" d="M58.95,45.49s-.06-.09-.13-.15c-.13-.15-.26-.3-.46-.3-.11,0-.22.07-.3.13-.04.04-.07.13-.07.19-.02.07-.07.28-.09.41-.02.02-.07.07-.11.13-.04.07-.09.11-.13.15-.07.09-.13.15-.15.24-.02,0-.09.02-.11.02-.11.02-.28.09-.39.24-.02,0-.09.04-.13.09-.11.07-.24.15-.33.28-.15.19-.15.35-.15.5,0,.04,0,.09-.02.15,0,.28.04.41.11.59h0c-.07.04-.13.13-.2.24-.04.09-.09.13-.11.17-.07.09-.13.15-.2.33-.13.26-.11.48.07.65-.02.06-.02.11-.04.17-.09.28-.02.43.15.59.02.04.07.09.11.13.17.2.35.24.48.24.17,0,.28-.07.37-.13.17,0,.52-.19.63-.43h0l.96-2.54s.02-.11.02-.15v-.04c.15-.04.22-.17.24-.26.02-.07.02-.13.02-.17.2-.17.2-.43.15-.91-.02-.28-.04-.37-.2-.54h0Z"/>
    <path class="cls-1" d="M18.29,40.88c.26.2.26.52.67.52h.07c.11.11.3.19.58.13.28-.51.59-1,.91-1.46-.39.34-.87.68-1.16.25-.22-.35.02-.89-.33-1.22-.22-.15-.59-.09-.7-.3-.28-.46.28-.61.5-.78.04-.02.06-.04.09-.07.06.04.22.04.3.02.04,0,.09-.02.09-.04.35.24,1.89.63,1.78-.26-.02-.13-.09-.24-.2-.28-.35-.15-.78-.11-1.11-.3-.46-.3-.3-.78-.33-1.26-.04-.39-.07-.85.28-1.11.02-.02.04-.04.07-.04.13-.09.2-.15.26-.3.04-.04.04-.09.07-.13.02-.02.04-.04.07-.09.07-.04.11-.09.13-.11.09-.11.11-.28.07-.41.02-.06.02-.13,0-.17.04-.06.06-.15.11-.2.11-.28.22-.7.41-.91.33-.41.57-.52.78-1.04.06-.13.24-.24.33-.33-.06.07.46.13.52.09.22-.09.35-.35.52-.5.33-.28,1.26-.65,1.06-1.22.09-.04.17-.09.33-.13.35-.15.93-.11,1.2-.41.39-.46-.2-1.22-.3-1.7-.07-.33-.24-1-.67-1-.57,0-.65-.33-.72-.85-.02-.3-.11-1.43.37-1.52.3-.07,1.11-.91,1.04-1.24-.04-.15-.15-.35-.57-.37-.11-.02-.17-.02-.24-.04.04-.04.04-.11.04-.15,0-.46-.61-.35-.89-.43-.43-.11-.83-.43-.59-.87.17-.28.35-.5.61-.7.37-.26.35-.39.83-.24.28.11.41.2.74.15.37-.07,1.09-.83,1.33-.28.02.02.04.09.04.09-.04.09-.2.2-.24.22-.11.07-.17.15-.17.26-.02.06-.04.26.11.41.02.04.07.07.13.11.02.07.09.15.17.22-.04.04-.09.07-.11.11-.07.04-.48.52-.33,1.04.04.24.09.37.13.46.02.07.04.11.07.2,0,.04,0,.11.02.17.02.26.04.63.39.76.07.06.22.2.54.15.28-.04.7.04.93-.07.22-.07.89-.72.76-1,.04-.09.11-.2.13-.33.06-.07.13-.13.17-.2l.04-.04c.24-.3.39-.46.33-.76v-.07s.07-.09.17-.11c.8-.26,1.17-1.17,1.89-1.56.09-.04.17-.09.37-.22.17-.13.3-.24.39-.33.04-.02.11-.09.13-.09.11-.04.24-.15.52-.35.37-.28,1.93-1.17.98-1.72.37-.04.3-.24.5-.39.41-.3.24-.76.35-1.2.17-.54,1.15-1.04,1-1.67-.07-.22-.2-.28-.39-.28-.33.02-.8.3-1.04.28-.35-.02-.65-.17-1.04-.17-.8.04-1.54.43-2.3.67-.72.26-2.11.87-2.5,1.54l-.07.13c-.09,0-.2.04-.37.11-.65.26-1.39.28-2.04.54-1.07.46-2.2.83-3.15,1.52-.33.22-.52.28-.67.33-.06.02-.13.04-.19.07-.35.15-.48.5-.48.54-.02.04-.02.09-.02.13-.04,0-.09,0-.09.02-.07,0-.11.04-.13.07-.07.04-.13.09-.15.09,0,0-.43.2-.46.2-.35.15-.22.56-.39.83-.33.48-.83.15-1.3.33-.43.17-.35.52-.48.87-.22.54-.46.33-.93.46-.26.07-.37.37-.63.15-.33-.24-.74.02-1,.24-.13.11-.3.26-.37.43-.26.52-.61,1-.89,1.5-.06.11-.04.26.02.37.22.41-.83,1.13-1,1.5-.22.5-.37,1.04-.59,1.54-.39.98-.67,1.98-.93,3-.65,2.52-.91,5.15-.74,7.74,0,.17.26.74.43.81l.35.15c.11.13.28.26.43.26.22,0,.33-.11.54.02.39.22.57.83,1.17.7.07,0,.15-.02.22-.02.13.04.43.13.57.17.04,0,.07.02.09.02.41.15.93-.13,1.39.02.43.13,1,.07,1.37.35Z"/>
    <path class="cls-3" d="M34.17,43.39c-.33-.85-.67-.52-1.33-.76-.28-.09-.46-.17-.59-.22-.52-.26-1.11-.17-1.65-.24-.59-.11-1.15-.2-1.72-.33-.59-.11-.76-.26-1.17-.65-.2-.17-.39-.33-.59-.57-.37-.39-1.09-.39-1.56-.37-.72,0-1.09-.52-1.76-.74-.52-.17-1.02-.02-1.54.07-.27.04-.5-.01-.79-.05-.85.82-1.7,1.58-2.55,2.29.02,0,.04,0,.06,0,.63-.11.96.5.8,1.04-.11.35-.28.63-.24,1,.02.37.26.7.3,1.04.13.89.5.65,1.02,1.22.3.28.41.76.72,1.02.07.04.09.09.13.11.07.09.15.2.15.2.11.06.28.35.41.43.33.24.76.44,1.15.44.04,0,.11,0,.15.02.22.24.37.37.5.41.02,0,.04.02.07.04.13.28.48,1.13.61,1.46.13.41.67,1.76.72,1.82.22.41.48.91.61,1.35.09.17.17.41.24.61.04.11.09.22.11.26.11.33.15.7.3,1.02.09.22.33.33.43.52.09.2.04.39.13.59.15.39.57.7.76,1.07.26.5.41,1.04.67,1.52.37.65.8,1.33,1.39,1.83,1,.87,2.8.78,3.82-.04.11-.09.15-.26.11-.39-.07-.19-.28-.28-.52-.19-.5.13-1-.13-1.33-.54-.3-.35-.11-.8-.28-1.2-.15-.33-.61-.41-.76-.76-.11-.24,0-.48.04-.74.06-.44-.24-.78-.11-1.24.09-.37.43-.43.59-.78.15-.37.13-.59.04-.85-.07-.15-.13-.24-.2-.28.02-.02.07-.04.11-.04.04-.04.11-.07.17-.09.61-.24.57-.87.59-1.43.02-.52.43-1.17.15-1.63-.17-.28-.39-.26-.22-.61.17-.41.41-.52.8-.52.78,0,1.33-.89,1.04-1.65-.02-.07-.04-.11-.07-.15-.13-.46-.35-1.3-.35-1.76,0-.37.04-.72.28-.96.41-.37.3-1.13.11-1.59Z"/>
    <path class="cls-7" d="M18.25,37.43h0c-.04.11-.07.2-.07.28-.06-.02-.13-.04-.19-.04s-.11,0-.24.04c-.32.09-.97.28-.82.8.02.07.02.11.02.11-.02.07-.06.11-.09.15-.11.02-.2.11-.24.15h0c-.11-.04-.15-.09-.26-.04-.04-.07-.09-.09-.13-.11q-.06-.07-.09-.09c-.02-.15-.04-.32-.07-.5-.02-.11-.02-.22-.04-.37.02-.04.04-.13.04-.26l-.02-.11c0-.07,0-.13-.02-.24v-.02s.09-.04.09-.04c.15-.09.19-.15.26-.3.02-.02.02-.04.04-.07l.35-.11s.09-.02.11-.02c.06.02.13.04.22.04s.24-.02.39-.2c.07-.09.11-.17.11-.26.11-.02.19-.04.26-.07.13.09.24.2.52.04h0l.04.13c.04.13.11.32.28.5l.06.07s.02.04.02.04c-.24.11-.45.32-.54.48h0Z"/>
    <path class="cls-7" d="M20.91,25.23h0c-.09.07-.17.22-.15.45,0,.09-.02.11-.04.15-.04.07-.09.2-.07.35-.15.11-.32.32-.35.54-.02.19.06.37.24.5t.04.02c-.06.3-.39.56-.67.74-.09-.09-.24-.09-.35-.07-.04.02-.22.07-.35.11-.13-.07-.28-.11-.41-.07-.02,0-.04,0-.04-.02-.13-.07-.3-.15-.5-.13-.02-.09-.06-.17-.15-.22.22-.43.48-.82.71-.91.17-.07.39-.28.41-.54.06-.02.11-.04.17-.09.09,0,.17-.02.24-.11,0,0,.02-.04.13-.11l.11-.11c.24-.19.39-.32.35-.58.04-.07.07-.15.09-.24.04-.02.07-.02.09-.04l.26-.09c.11-.02.28-.04.37-.24,0,0,.02-.02.04-.02.04-.04.09-.07.11-.09-.07.15-.11.32-.09.43.02.09.09.15.13.22-.15.02-.26.09-.32.15h0Z"/>
    <path class="cls-7" d="M46.27,29.55h0l-.37-.02h-.09s-.19.02-.61.07c-.28.02-.37.02-.41.02h-.09c-.09,0-.26.02-.26.02-.13,0-.28.04-.41.09.02-.04.04-.09.06-.13h0c.07-.04.13-.09.15-.13.13-.15.09-.32.06-.43v-.07c.11-.09.17-.15.22-.24t.04-.02c.22,0,.41-.07.43-.07.11-.04.19-.15.22-.26l.11-.37s.11.02.17.04c.13.07.3.13.45.13h.09c.11-.02.17-.07.24-.09,0,.07,0,.15.02.26-.04.04-.09.11-.11.17-.02.09-.02.19.02.28l.09.48c0,.11.06.19.13.24-.09,0-.17.02-.17.02h0Z"/>
    <path class="cls-7" d="M54.64,31.13h0c-.09.07-.32.22-.3.52,0,.06,0,.11.02.15h-.04s-.11-.04-.19-.04c-.11-.07-.22-.13-.45-.13-.28,0-.41.13-.5.24-.07-.02-.2-.09-.26-.13-.09-.07-.17-.11-.26-.13-.09-.02-.17-.02-.41-.02-.09-.02-.17-.04-.19-.07-.07-.02-.13-.04-.19-.04-.04-.02-.17-.07-.24-.11,0,0-.09-.04-.17-.13-.11-.11-.28-.22-.69-.15-.26,0-.39.19-.48.3-.19.13-.22.32-.19.48,0,0-.02,0-.04-.02-.04-.04-.06-.09-.13-.15-.17-.15-.39-.15-.56-.15-.07-.24-.26-.37-.45-.41,0,0-.37-.06-.54-.06-.06,0-.13-.02-.17-.02-.04-.02-.09-.02-.13-.02,0-.02-.02-.02-.02-.02-.02-.04-.11-.13-.24-.17.02-.02.04-.04.07-.09.11-.15.11-.32,0-.52.02-.02.04-.04.07-.09.11.06.32.17.67.3.09.04.19.04.28,0,.09-.04.15-.11.19-.19l.06-.17c.11-.04.26-.13.37-.28,0-.02,0-.04.02-.07.11-.02.22-.11.26-.22.04-.02.09-.02.13-.04.04.04.09.09.17.11,0,.07.02.15.04.22,0,.06.02.11.07.15l.15.22s.04.07.09.09c.09.04.22.15.35.17.09.02.39.07.39.07h.07c.17,0,.32-.15.35-.35,0,0,.02-.02.04-.02l.11-.11s.06-.09.09-.13c.07.15.22.39.48.43.13.3.19.41.37.41l.32.04c.07.02.15.07.24.07s.24-.07.3-.13c.02-.02.04-.02.04-.04l.02.02c.13.11.24.19.48.19h.11c.11,0,.26-.04.37-.17h.09c.02.15.02.32.02.43h0Z"/>
    <path class="cls-7" d="M46.26,29.94h0l-.37-.02h-.09s-.19.02-.61.07c-.28.02-.37.02-.41.02h-.09c-.09,0-.26.02-.26.02-.13,0-.28.04-.41.09.02-.04.04-.09.06-.13h0c.07-.04.13-.09.15-.13.13-.15.09-.32.06-.43v-.07c.11-.09.17-.15.22-.24t.04-.02c.22,0,.41-.07.43-.07.11-.04.19-.15.22-.26l.11-.37s.11.02.17.04c.13.07.3.13.45.13h.09c.11-.02.17-.07.24-.09,0,.07,0,.15.02.26-.04.04-.09.11-.11.17-.02.09-.02.19.02.28l.09.48c0,.11.06.19.13.24-.09,0-.17.02-.17.02h0Z"/>
    <path class="cls-7" d="M54.64,31.52h0c-.09.07-.32.22-.3.52,0,.06,0,.11.02.15h-.04s-.11-.04-.19-.04c-.11-.07-.22-.13-.45-.13-.28,0-.41.13-.5.24-.07-.02-.2-.09-.26-.13-.09-.07-.17-.11-.26-.13-.09-.02-.17-.02-.41-.02-.09-.02-.17-.04-.19-.07-.07-.02-.13-.04-.19-.04-.04-.02-.17-.07-.24-.11,0,0-.09-.04-.17-.13-.11-.11-.28-.22-.69-.15-.26,0-.39.19-.48.3-.19.13-.22.32-.19.48,0,0-.02,0-.04-.02-.04-.04-.06-.09-.13-.15-.17-.15-.39-.15-.56-.15-.07-.24-.26-.37-.45-.41,0,0-.37-.06-.54-.06-.06,0-.13-.02-.17-.02-.04-.02-.09-.02-.13-.02,0-.02-.02-.02-.02-.02-.02-.04-.11-.13-.24-.17.02-.02.04-.04.07-.09.11-.15.11-.32,0-.52.02-.02.04-.04.07-.09.11.06.32.17.67.3.09.04.19.04.28,0,.09-.04.15-.11.19-.19l.06-.17c.11-.04.26-.13.37-.28,0-.02,0-.04.02-.07.11-.02.22-.11.26-.22.04-.02.09-.02.13-.04.04.04.09.09.17.11,0,.07.02.15.04.22,0,.06.02.11.07.15l.15.22s.04.07.09.09c.09.04.22.15.35.17.09.02.39.07.39.07h.07c.17,0,.32-.15.35-.35,0,0,.02-.02.04-.02l.11-.11s.06-.09.09-.13c.07.15.22.39.48.43.13.3.19.41.37.41l.32.04c.07.02.15.07.24.07s.24-.07.3-.13c.02-.02.04-.02.04-.04l.02.02c.13.11.24.19.48.19h.11c.11,0,.26-.04.37-.17h.09c.02.15.02.32.02.43h0Z"/>
  </g>
</svg>